#define iconify_width 8
#define iconify_height 8
static unsigned char iconify_bits[] = {
   0x00, 0x00, 0x81, 0xc3, 0x66, 0x3c, 0x18, 0x00 };
