#define max_toggled_width 8
#define max_toggled_height 8
static unsigned char max_toggled_bits[] = {
   0x3c, 0x18, 0xbd, 0xe7, 0xe7, 0xbd, 0x18, 0x3c };
