#define shade_width 8
#define shade_height 8
static unsigned char shade_bits[] = {
   0x00, 0x00, 0x18, 0x3c, 0x66, 0xc3, 0x81, 0x00 };
